<?xml version="1.0"?>
<svg xmlns="http://www.w3.org/2000/svg" xmlns:xlink="http://www.w3.org/1999/xlink" xmlns:svgjs="http://svgjs.com/svgjs" version="1.1" width="512" height="512" x="0" y="0" viewBox="0 0 512 512" style="enable-background:new 0 0 512 512" xml:space="preserve" class=""><g transform="matrix(1,0,0,1,0,8.526512829121202e-14)"><g xmlns="http://www.w3.org/2000/svg" id="XMLID_55_"><path id="XMLID_108_" d="m391 136-40 23.703v66.297l-95 60-95-60v-66.297l-40-23.703h-51v240h372v-240z" fill="#7986cb" data-original="#e2c4ff" class=""/><g id="XMLID_109_"><path id="XMLID_69_" d="m502 366h-10v-240c0-22.056-17.944-40-40-40h-125.761l-65.142-38.603c-3.143-1.863-7.053-1.863-10.195 0l-65.141 38.603h-125.761c-22.056 0-40 17.944-40 40v240h-10c-5.523 0-10 4.478-10 10v50c0 22.056 17.944 40 40 40h432c22.056 0 40-17.944 40-40v-50c0-5.522-4.478-10-10-10zm-246-298.376 115.385 68.376-115.385 68.376-115.385-68.376zm-85 109.629 79.902 47.35c3.143 1.863 7.053 1.863 10.195 0l79.903-47.35v43.235l-85 53.684-85-53.684zm-131-51.253c0-11.028 8.972-20 20-20h92.011l-36.108 21.397c-6.523 3.866-6.533 13.333 0 17.205l35.097 20.799v60.599c0 3.431 1.759 6.623 4.66 8.455l95 60c3.26 2.059 7.418 2.06 10.68 0l95-60c2.901-1.832 4.66-5.024 4.66-8.455v-60.599l20-11.853v102.452c0 27.57-22.43 50-50 50-5.522 0-10 4.478-10 10s4.478 10 10 10c38.599 0 70-31.401 70-70v-120c0-3.467-1.825-6.756-4.902-8.603l-36.109-21.397h92.011c11.028 0 20 8.972 20 20v240c-13.637 0-411.504 0-432 0zm171 260h90v20h-90zm281 40c0 11.028-8.972 20-20 20h-432c-11.028 0-20-8.972-20-20v-40h171v30c0 5.522 4.477 10 10 10h110c5.522 0 10-4.478 10-10v-30h171z" fill="#3949ab" data-original="#020288" class=""/></g></g></g></svg>
