<?xml version="1.0" standalone="no"?>
<!DOCTYPE svg PUBLIC "-//W3C//DTD SVG 20010904//EN"
 "http://www.w3.org/TR/2001/REC-SVG-20010904/DTD/svg10.dtd">
<svg version="1.0" xmlns="http://www.w3.org/2000/svg"
 width="700.000000pt" height="700.000000pt" viewBox="0 0 700.000000 700.000000"
 preserveAspectRatio="xMidYMid meet">
<metadata>
Created by potrace 1.14, written by Peter Selinger 2001-2017
</metadata>
<g transform="translate(0.000000,700.000000) scale(0.100000,-0.100000)"
fill="#000000" stroke="none">
<path d="M3370 6994 c-24 -4 -125 -22 -163 -30 -10 -2 -27 -6 -37 -9 -10 -3
-28 -8 -39 -10 -34 -8 -48 -11 -201 -49 -250 -60 -444 -107 -465 -111 -11 -3
-65 -16 -120 -30 -128 -32 -839 -203 -875 -210 -8 -2 -44 -11 -80 -20 -36 -9
-72 -18 -80 -20 -18 -4 -109 -25 -130 -30 -31 -8 -311 -76 -446 -108 -165 -40
-217 -65 -259 -127 -26 -40 -30 -53 -30 -117 0 -64 3 -76 31 -115 30 -41 112
-97 144 -98 8 0 32 -5 53 -11 l37 -10 0 -396 0 -395 -59 -57 c-138 -135 -137
-330 3 -459 l45 -41 -30 -118 c-17 -65 -32 -125 -34 -133 -2 -8 -15 -62 -30
-120 -15 -58 -28 -112 -30 -120 -2 -8 -24 -98 -50 -200 -57 -228 -56 -277 11
-329 26 -20 38 -21 341 -21 l315 0 33 33 c42 42 52 91 35 166 -8 31 -15 61
-16 66 -1 6 -19 75 -39 155 -20 80 -38 152 -40 160 -2 8 -8 35 -14 60 -7 25
-14 54 -16 65 -3 11 -23 92 -44 179 -39 158 -40 160 -20 174 68 47 129 158
130 238 3 104 -26 170 -108 250 l-55 55 1 351 c0 193 2 352 3 354 2 1 55 -10
118 -26 63 -15 192 -46 285 -69 94 -23 180 -43 193 -46 13 -2 32 -7 42 -10 10
-3 28 -8 41 -10 12 -2 23 -6 25 -7 1 -2 4 -235 7 -518 2 -283 8 -533 12 -555
70 -399 236 -729 495 -986 271 -268 590 -431 965 -494 160 -27 421 -26 560 1
11 2 34 7 50 9 437 77 862 365 1117 755 143 220 229 450 269 725 13 91 25 502
28 977 l1 86 48 11 c26 6 58 14 72 17 14 3 43 10 65 16 22 6 49 13 60 15 11 2
38 8 60 14 22 6 47 13 55 14 8 2 100 24 203 49 104 25 199 48 210 51 12 2 42
9 67 16 25 6 52 12 60 14 107 24 266 68 292 81 171 87 151 323 -34 392 -29 11
-67 22 -83 25 -17 3 -122 28 -235 56 -113 27 -347 84 -520 125 -173 42 -331
80 -350 86 -29 8 -175 43 -230 55 -8 2 -89 22 -180 44 -137 33 -233 56 -360
86 -50 12 -378 91 -500 121 -80 20 -156 38 -170 41 -14 2 -45 9 -70 14 -46 11
-294 20 -340 13z"/>
<path d="M2045 2710 c-11 -5 -63 -25 -115 -45 -527 -204 -986 -625 -1245
-1143 -36 -72 -65 -137 -65 -144 0 -8 -4 -18 -9 -23 -10 -12 -92 -245 -86
-245 3 0 0 -12 -6 -26 -12 -34 -45 -184 -53 -244 -3 -25 -8 -56 -11 -70 -7
-41 -15 -190 -16 -275 0 -228 129 -409 339 -476 55 -17 173 -18 2712 -18 2543
-1 2658 0 2722 17 164 46 298 183 337 347 12 48 15 204 6 295 -17 164 -20 188
-45 305 -161 763 -704 1405 -1435 1698 -61 25 -124 47 -140 51 -29 6 -61 -25
-732 -697 l-703 -703 -703 703 c-387 387 -710 703 -718 702 -8 0 -23 -4 -34
-9z"/>
</g>
</svg>
